<svg width="24" height="24" viewBox="0 0 24 24" fill="none" xmlns="http://www.w3.org/2000/svg">
<path fill-rule="evenodd" clip-rule="evenodd" d="M11.429 6.969H15.143V8.819C15.678 7.755 17.05 6.799 19.111 6.799C23.062 6.799 24 8.917 24 12.803V20H20V13.688C20 11.475 19.465 10.227 18.103 10.227C16.214 10.227 15.429 11.572 15.429 13.687V20H11.429V6.969ZM4.57 19.83H8.57V6.799H4.57V19.83ZM9.143 2.55C9.14315 2.88528 9.07666 3.21724 8.94739 3.52659C8.81812 3.83594 8.62865 4.11651 8.39 4.352C7.9064 4.83262 7.25181 5.10165 6.57 5.1C5.88939 5.09954 5.23631 4.8312 4.752 4.353C4.51421 4.11671 4.32539 3.83582 4.19634 3.52643C4.0673 3.21704 4.00058 2.88522 4 2.55C4 1.873 4.27 1.225 4.753 0.747C5.23689 0.268158 5.89024 -0.000299211 6.571 2.50265e-07C7.253 2.50265e-07 7.907 0.269 8.39 0.747C8.872 1.225 9.143 1.873 9.143 2.55Z" fill="#4F4D4D"/>
</svg>
