<svg width="20" height="20" viewBox="0 0 20 20" fill="none" xmlns="http://www.w3.org/2000/svg">
<path d="M12.5 9.28573C12.7842 9.28573 13.0567 9.17285 13.2576 8.97192C13.4585 8.77099 13.5714 8.49846 13.5714 8.2143C13.5714 7.93014 13.4585 7.65762 13.2576 7.45669C13.0567 7.25576 12.7842 7.14287 12.5 7.14287C12.2158 7.14287 11.9433 7.25576 11.7424 7.45669C11.5415 7.65762 11.4286 7.93014 11.4286 8.2143C11.4286 8.49846 11.5415 8.77099 11.7424 8.97192C11.9433 9.17285 12.2158 9.28573 12.5 9.28573ZM8.57143 8.2143C8.57143 8.49846 8.45855 8.77099 8.25762 8.97192C8.05668 9.17285 7.78416 9.28573 7.5 9.28573C7.21584 9.28573 6.94332 9.17285 6.74239 8.97192C6.54146 8.77099 6.42857 8.49846 6.42857 8.2143C6.42857 7.93014 6.54146 7.65762 6.74239 7.45669C6.94332 7.25576 7.21584 7.14287 7.5 7.14287C7.78416 7.14287 8.05668 7.25576 8.25762 7.45669C8.45855 7.65762 8.57143 7.93014 8.57143 8.2143ZM5.94857 12.2357C6.06566 12.156 6.20954 12.1259 6.34875 12.152C6.48796 12.1781 6.61117 12.2583 6.69143 12.375L6.69786 12.3836L6.72929 12.4257C6.75929 12.4643 6.80786 12.5229 6.87429 12.5957C7.00786 12.7407 7.21143 12.9386 7.48714 13.1364C8.03572 13.5314 8.86572 13.9286 10 13.9286C11.1343 13.9286 11.9643 13.5314 12.5129 13.1364C12.7886 12.9386 12.9929 12.7407 13.1257 12.5957C13.1881 12.5279 13.2472 12.4571 13.3029 12.3836L13.3079 12.3764C13.3879 12.259 13.5113 12.1781 13.651 12.1517C13.7906 12.1252 13.935 12.1553 14.0525 12.2354C14.17 12.3154 14.2508 12.4388 14.2773 12.5785C14.3037 12.7181 14.2736 12.8626 14.1936 12.98L14.1921 12.9807V12.9822L14.19 12.9843L14.185 12.9914L14.1693 13.0136C14.09 13.1197 14.0053 13.2217 13.9157 13.3193C13.6807 13.5742 13.4203 13.8044 13.1386 14.0064C12.4457 14.5043 11.4014 15 10 15C8.59857 15 7.55429 14.5043 6.86143 14.0064C6.57969 13.8044 6.3193 13.5742 6.08429 13.3193C5.98896 13.2152 5.8993 13.1059 5.81572 12.9922L5.81 12.985L5.80857 12.9822L5.80786 12.9807L5.80714 12.98C5.7272 12.8626 5.69719 12.7182 5.72372 12.5786C5.75024 12.439 5.83112 12.3157 5.94857 12.2357ZM10 1.42859C5.26643 1.42859 1.42857 5.26645 1.42857 10C1.42857 14.7336 5.26643 18.5714 10 18.5714C14.7336 18.5714 18.5714 14.7336 18.5714 10C18.5714 5.26645 14.7336 1.42859 10 1.42859ZM2.5 10C2.5 5.85787 5.85786 2.50002 10 2.50002C14.1421 2.50002 17.5 5.85787 17.5 10C17.5 14.1422 14.1421 17.5 10 17.5C5.85786 17.5 2.5 14.1422 2.5 10Z" fill="black" fill-opacity="0.54"/>
</svg>
