<svg width="27" height="28" viewBox="0 0 27 28" fill="none" xmlns="http://www.w3.org/2000/svg">
<path d="M19.2967 17.3973H18.0772L17.6449 16.9703C19.1578 15.1673 20.0686 12.8266 20.0686 10.2802C20.0686 4.60239 15.5763 0 10.0343 0C4.49228 0 0 4.60239 0 10.2802C0 15.9581 4.49228 20.5605 10.0343 20.5605C12.5197 20.5605 14.8045 19.6274 16.5643 18.0774L16.9811 18.5203V19.7697L24.6998 27.6618L27 25.3052L19.2967 17.3973ZM10.0343 17.3973C6.19039 17.3973 3.08748 14.2184 3.08748 10.2802C3.08748 6.34212 6.19039 3.16315 10.0343 3.16315C13.8782 3.16315 16.9811 6.34212 16.9811 10.2802C16.9811 14.2184 13.8782 17.3973 10.0343 17.3973Z" fill="black" fill-opacity="0.62"/>
</svg>
