<svg width="17" height="17" viewBox="0 0 17 17" fill="none" xmlns="http://www.w3.org/2000/svg">
<path d="M15.3232 4.70822C15.1007 4.19297 14.7799 3.72605 14.3786 3.33361C13.9771 2.93999 13.5036 2.62719 12.9841 2.41222C12.4453 2.18842 11.8675 2.07386 11.2841 2.07521C10.4656 2.07521 9.66709 2.29933 8.97314 2.72267C8.80713 2.82394 8.64941 2.93517 8.5 3.05636C8.35059 2.93517 8.19287 2.82394 8.02686 2.72267C7.33291 2.29933 6.53437 2.07521 5.71592 2.07521C5.12656 2.07521 4.55547 2.1881 4.01592 2.41222C3.49463 2.62804 3.0248 2.93849 2.62139 3.33361C2.21962 3.72561 1.89868 4.19263 1.67676 4.70822C1.446 5.24445 1.32812 5.81389 1.32812 6.39992C1.32812 6.95275 1.44102 7.52883 1.66514 8.11487C1.85273 8.60461 2.12168 9.11262 2.46533 9.62561C3.00986 10.4374 3.75859 11.2841 4.68828 12.1424C6.22891 13.5652 7.75459 14.548 7.81934 14.5878L8.21279 14.8402C8.38711 14.9514 8.61123 14.9514 8.78555 14.8402L9.179 14.5878C9.24375 14.5463 10.7678 13.5652 12.3101 12.1424C13.2397 11.2841 13.9885 10.4374 14.533 9.62561C14.8767 9.11262 15.1473 8.60461 15.3332 8.11487C15.5573 7.52883 15.6702 6.95275 15.6702 6.39992C15.6719 5.81389 15.554 5.24445 15.3232 4.70822ZM8.5 13.527C8.5 13.527 2.58984 9.74016 2.58984 6.39992C2.58984 4.70822 3.98936 3.33693 5.71592 3.33693C6.92949 3.33693 7.98203 4.01427 8.5 5.00373C9.01797 4.01427 10.0705 3.33693 11.2841 3.33693C13.0106 3.33693 14.4102 4.70822 14.4102 6.39992C14.4102 9.74016 8.5 13.527 8.5 13.527Z" fill="black" fill-opacity="0.5"/>
</svg>
